<svg width="55" height="64" viewBox="0 0 55 64" fill="none" xmlns="http://www.w3.org/2000/svg">
<path d="M17.5411 57.4433C23.7082 60.9844 31.2918 60.9844 37.4589 57.4432L44.9589 53.1368C51.1701 49.5704 55 42.9549 55 35.7926V27.3691C55 20.2069 51.1701 13.5914 44.9589 10.025L37.4589 5.71851C31.2918 2.17738 23.7082 2.17738 17.5411 5.71851L10.0411 10.025C3.8299 13.5914 0 20.2069 0 27.3691V35.7926C0 42.9549 3.82991 49.5704 10.0411 53.1368L17.5411 57.4433Z" fill="#E98074"/>
<path d="M23.9443 52.8555C26.0998 54.0904 28.7484 54.0904 30.9039 52.8555L43.849 45.439C46.0262 44.1917 47.3692 41.8744 47.3692 39.3652V24.6255C47.3692 22.1163 46.0262 19.799 43.849 18.5517L30.9039 11.1352C28.7484 9.90028 26.0998 9.90028 23.9443 11.1352L10.9992 18.5517C8.82203 19.799 7.479 22.1163 7.479 24.6255V39.3652C7.479 41.8744 8.82203 44.1917 10.9992 45.439L23.9443 52.8555Z" fill="white"/>
<path fill-rule="evenodd" clip-rule="evenodd" d="M13.3394 23.4529L28.2621 16.6211L28.2622 16.6213L42.7762 32.0174L36.9659 34.6583L36.9678 34.6621L26.4652 39.4357L13.3544 23.4844L13.3394 23.4529Z" fill="#D8C3A4"/>
<path fill-rule="evenodd" clip-rule="evenodd" d="M11.6367 25.8628C11.6486 26.4005 12.1978 27.3085 12.1978 27.3085L24.4627 42.941C24.3813 42.5525 24.426 42.1217 24.5383 41.6703C24.6927 41.0492 25.313 40.2186 25.313 40.2186L25.9483 39.5641L12.9954 23.5649C12.9954 23.5649 12.3978 23.7933 12.126 24.0827C11.685 24.5521 11.6219 25.1988 11.6367 25.8628Z" fill="#EAE8DC"/>
<path d="M26.5509 39.8548L42.1813 32.6698L42.0077 36.8343L28.2824 43.568C28.2824 43.568 27.0224 44.1695 26.2171 43.9486C25.5224 43.7581 25.2499 43.5841 25.0026 42.9075C24.7426 42.1959 24.958 41.6474 25.3496 40.9988C25.7105 40.4008 26.5509 39.8548 26.5509 39.8548Z" fill="#EAE8DC"/>
<path fill-rule="evenodd" clip-rule="evenodd" d="M27.803 39.8887C27.5527 40.0054 27.4444 40.3029 27.5611 40.5532C27.6778 40.8035 27.9753 40.9117 28.2256 40.795L43.8446 33.5118L43.422 32.6055L27.803 39.8887Z" fill="#505050"/>
<path fill-rule="evenodd" clip-rule="evenodd" d="M42.0839 34.729L27.1843 41.9548C26.9358 42.0753 26.826 42.3772 26.939 42.6292C27.052 42.8812 27.345 42.9878 27.5934 42.8673L42.0527 35.855L42.0839 34.729Z" fill="#505050"/>
<path d="M27.3951 42.4753C27.2756 42.3772 27.9379 42.0866 28.458 41.8528C29.0575 41.5832 29.8785 41.1626 29.8785 41.1626C29.8785 41.1626 30.3175 42.1681 30.4066 42.9544C30.5253 44.0019 30.2297 45.6985 30.2297 45.6985C29.9409 44.9558 29.6658 44.8201 28.9568 44.5575L27.4971 46.313C27.4971 46.313 27.9826 44.4624 27.7037 43.5673C27.5173 42.9694 27.5147 42.5733 27.3951 42.4753Z" fill="#E85A50"/>
<path d="M20.8545 23.8125L26.8316 21.0253L28.9069 23.4974L22.9063 26.3293L20.8545 23.8125Z" fill="#EAE8DC"/>
<path fill-rule="evenodd" clip-rule="evenodd" d="M13.3394 23.4529L28.2621 16.6211L28.2622 16.6213L42.7762 32.0174L36.9659 34.6583L36.9678 34.6621L26.4652 39.4357L13.3544 23.4844L13.3394 23.4529Z" fill="#D8C3A4"/>
<path fill-rule="evenodd" clip-rule="evenodd" d="M11.6367 25.8628C11.6486 26.4005 12.1978 27.3085 12.1978 27.3085L24.4627 42.941C24.3813 42.5525 24.426 42.1217 24.5383 41.6703C24.6927 41.0492 25.313 40.2186 25.313 40.2186L25.9483 39.5641L12.9954 23.5649C12.9954 23.5649 12.3978 23.7933 12.126 24.0827C11.685 24.5521 11.6219 25.1988 11.6367 25.8628Z" fill="#EAE8DC"/>
<path d="M26.5509 39.8548L42.1813 32.6698L42.0077 36.8343L28.2824 43.568C28.2824 43.568 27.0224 44.1695 26.2171 43.9486C25.5224 43.7581 25.2499 43.5841 25.0026 42.9075C24.7426 42.1959 24.958 41.6474 25.3496 40.9988C25.7105 40.4008 26.5509 39.8548 26.5509 39.8548Z" fill="#EAE8DC"/>
<path fill-rule="evenodd" clip-rule="evenodd" d="M27.803 39.8887C27.5527 40.0054 27.4444 40.3029 27.5611 40.5532C27.6778 40.8035 27.9753 40.9117 28.2256 40.795L43.8446 33.5118L43.422 32.6055L27.803 39.8887Z" fill="#505050"/>
<path fill-rule="evenodd" clip-rule="evenodd" d="M42.0839 34.729L27.1843 41.9548C26.9358 42.0753 26.826 42.3772 26.939 42.6292C27.052 42.8812 27.345 42.9878 27.5934 42.8673L42.0527 35.855L42.0839 34.729Z" fill="#505050"/>
<path d="M27.3951 42.4753C27.2756 42.3772 27.9379 42.0866 28.458 41.8528C29.0575 41.5832 29.8785 41.1626 29.8785 41.1626C29.8785 41.1626 30.3175 42.1681 30.4066 42.9544C30.5253 44.0019 30.2297 45.6985 30.2297 45.6985C29.9409 44.9558 29.6658 44.8201 28.9568 44.5575L27.4971 46.313C27.4971 46.313 27.9826 44.4624 27.7037 43.5673C27.5173 42.9694 27.5147 42.5733 27.3951 42.4753Z" fill="#E85A50"/>
<path d="M20.8545 23.8125L26.8316 21.0253L28.9069 23.4974L22.9063 26.3293L20.8545 23.8125Z" fill="#EAE8DC"/>
</svg>
