<svg width="129" height="17" viewBox="0 0 129 17" fill="none" xmlns="http://www.w3.org/2000/svg">
<path d="M0.74 16V2H12.04V4.58H3.96V7.46H7.84C9.53333 7.46 10.82 7.81333 11.7 8.52C12.5933 9.22667 13.04 10.2533 13.04 11.6C13.04 12.9867 12.5467 14.0667 11.56 14.84C10.5733 15.6133 9.18 16 7.38 16H0.74ZM3.96 13.6H7.2C8.02667 13.6 8.66 13.44 9.1 13.12C9.54 12.7867 9.76 12.3067 9.76 11.68C9.76 10.4533 8.90667 9.84 7.2 9.84H3.96V13.6ZM15.2656 16V5.24H18.3656V11.64L23.6056 5.24H26.4656V16H23.3656V9.6L18.1456 16H15.2656ZM34.8048 16.24C33.9248 16.24 33.1248 16.1133 32.4048 15.86C31.6848 15.5933 31.0582 15.1867 30.5248 14.64C30.0048 14.08 29.5982 13.3667 29.3048 12.5C29.0248 11.6333 28.8848 10.6 28.8848 9.4C28.8848 8.54667 28.9582 7.76667 29.1048 7.06C29.2515 6.35333 29.4715 5.71333 29.7648 5.14C30.0582 4.55333 30.4315 4.04 30.8848 3.6C31.3515 3.14667 31.8915 2.77333 32.5048 2.48C33.1315 2.17333 33.8382 1.94 34.6248 1.78L39.7448 0.76L40.1648 3.44L35.6448 4.34C35.3782 4.39333 35.0715 4.46667 34.7248 4.56C34.3915 4.64 34.0515 4.76667 33.7048 4.94C33.3715 5.11333 33.0582 5.36 32.7648 5.68C32.4848 5.98667 32.2582 6.39333 32.0848 6.9C31.9115 7.39333 31.8248 8.00667 31.8248 8.74C31.8248 8.96667 31.8315 9.14 31.8448 9.26C31.8715 9.38 31.8915 9.50667 31.9048 9.64C31.9315 9.77333 31.9448 9.98 31.9448 10.26L30.9448 9.28C31.2382 8.65333 31.6115 8.12 32.0648 7.68C32.5315 7.24 33.0648 6.90667 33.6648 6.68C34.2782 6.44 34.9582 6.32 35.7048 6.32C36.7182 6.32 37.6048 6.52667 38.3648 6.94C39.1382 7.34 39.7382 7.90667 40.1648 8.64C40.5915 9.37333 40.8048 10.2067 40.8048 11.14C40.8048 12.1533 40.5515 13.0467 40.0448 13.82C39.5382 14.58 38.8315 15.1733 37.9248 15.6C37.0315 16.0267 35.9915 16.24 34.8048 16.24ZM34.9648 13.82C35.4848 13.82 35.9448 13.7067 36.3448 13.48C36.7448 13.24 37.0515 12.9267 37.2648 12.54C37.4915 12.14 37.6048 11.6933 37.6048 11.2C37.6048 10.72 37.4915 10.2933 37.2648 9.92C37.0515 9.54667 36.7448 9.25333 36.3448 9.04C35.9448 8.82667 35.4782 8.72 34.9448 8.72C34.4248 8.72 33.9582 8.82667 33.5448 9.04C33.1315 9.24 32.8115 9.52 32.5848 9.88C32.3582 10.24 32.2448 10.66 32.2448 11.14C32.2448 11.6333 32.3582 12.0867 32.5848 12.5C32.8248 12.9 33.1448 13.22 33.5448 13.46C33.9582 13.7 34.4315 13.82 34.9648 13.82ZM41.4056 15.98L41.5656 13.42C41.6456 13.4333 41.7256 13.4467 41.8056 13.46C41.8856 13.46 41.959 13.46 42.0256 13.46C42.399 13.46 42.6923 13.3533 42.9056 13.14C43.119 12.9267 43.279 12.64 43.3856 12.28C43.4923 11.9067 43.5656 11.4867 43.6056 11.02C43.659 10.5533 43.699 10.0667 43.7256 9.56L43.8856 5.24H53.0856V16H49.9656V7.04L50.6656 7.8H45.9456L46.6056 7L46.4656 9.7C46.4256 10.66 46.3456 11.54 46.2256 12.34C46.119 13.14 45.939 13.8333 45.6856 14.42C45.4323 14.9933 45.0923 15.44 44.6656 15.76C44.239 16.0667 43.6923 16.22 43.0256 16.22C42.7856 16.22 42.5323 16.2 42.2656 16.16C41.999 16.12 41.7123 16.06 41.4056 15.98ZM56.0859 16V5.24H59.1859V11.64L64.4259 5.24H67.2859V16H64.1859V9.6L58.9659 16H56.0859ZM75.3252 16.16C74.1785 16.16 73.1585 15.92 72.2652 15.44C71.3852 14.96 70.6852 14.3067 70.1652 13.48C69.6585 12.64 69.4052 11.6867 69.4052 10.62C69.4052 9.54 69.6585 8.58667 70.1652 7.76C70.6852 6.92 71.3852 6.26667 72.2652 5.8C73.1585 5.32 74.1785 5.08 75.3252 5.08C76.4585 5.08 77.4718 5.32 78.3652 5.8C79.2585 6.26667 79.9585 6.91333 80.4652 7.74C80.9718 8.56667 81.2252 9.52667 81.2252 10.62C81.2252 11.6867 80.9718 12.64 80.4652 13.48C79.9585 14.3067 79.2585 14.96 78.3652 15.44C77.4718 15.92 76.4585 16.16 75.3252 16.16ZM75.3252 13.6C75.8452 13.6 76.3118 13.48 76.7252 13.24C77.1385 13 77.4652 12.66 77.7052 12.22C77.9452 11.7667 78.0652 11.2333 78.0652 10.62C78.0652 9.99333 77.9452 9.46 77.7052 9.02C77.4652 8.58 77.1385 8.24 76.7252 8C76.3118 7.76 75.8452 7.64 75.3252 7.64C74.8052 7.64 74.3385 7.76 73.9252 8C73.5118 8.24 73.1785 8.58 72.9252 9.02C72.6852 9.46 72.5652 9.99333 72.5652 10.62C72.5652 11.2333 72.6852 11.7667 72.9252 12.22C73.1785 12.66 73.5118 13 73.9252 13.24C74.3385 13.48 74.8052 13.6 75.3252 13.6ZM85.2805 16V7.08L85.9805 7.8H81.6405V5.24H92.0205V7.8H87.6805L88.3805 7.08V16H85.2805ZM98.4944 16.16C97.2677 16.16 96.1877 15.92 95.2544 15.44C94.3344 14.96 93.621 14.3067 93.1144 13.48C92.6077 12.64 92.3544 11.6867 92.3544 10.62C92.3544 9.54 92.601 8.58667 93.0944 7.76C93.601 6.92 94.2877 6.26667 95.1544 5.8C96.021 5.32 97.001 5.08 98.0944 5.08C99.1477 5.08 100.094 5.30667 100.934 5.76C101.788 6.2 102.461 6.84 102.954 7.68C103.448 8.50667 103.694 9.5 103.694 10.66C103.694 10.78 103.688 10.92 103.674 11.08C103.661 11.2267 103.648 11.3667 103.634 11.5H94.8944V9.68H101.994L100.794 10.22C100.794 9.66 100.681 9.17333 100.454 8.76C100.228 8.34667 99.9144 8.02667 99.5144 7.8C99.1144 7.56 98.6477 7.44 98.1144 7.44C97.581 7.44 97.1077 7.56 96.6944 7.8C96.2944 8.02667 95.981 8.35333 95.7544 8.78C95.5277 9.19333 95.4144 9.68667 95.4144 10.26V10.74C95.4144 11.3267 95.541 11.8467 95.7944 12.3C96.061 12.74 96.4277 13.08 96.8944 13.32C97.3744 13.5467 97.9344 13.66 98.5744 13.66C99.1477 13.66 99.6477 13.5733 100.074 13.4C100.514 13.2267 100.914 12.9667 101.274 12.62L102.934 14.42C102.441 14.98 101.821 15.4133 101.074 15.72C100.328 16.0133 99.4677 16.16 98.4944 16.16ZM113.706 16L110.106 10.9L112.646 9.4L117.386 16H113.706ZM106.086 16V5.24H109.206V16H106.086ZM108.286 11.92V9.42H112.046V11.92H108.286ZM112.946 10.98L110.026 10.66L113.806 5.24H117.126L112.946 10.98ZM125.163 16V13.9L124.963 13.44V9.68C124.963 9.01333 124.756 8.49333 124.343 8.12C123.943 7.74667 123.323 7.56 122.483 7.56C121.909 7.56 121.343 7.65333 120.783 7.84C120.236 8.01333 119.769 8.25333 119.383 8.56L118.263 6.38C118.849 5.96667 119.556 5.64667 120.383 5.42C121.209 5.19333 122.049 5.08 122.903 5.08C124.543 5.08 125.816 5.46667 126.723 6.24C127.629 7.01333 128.083 8.22 128.083 9.86V16H125.163ZM121.883 16.16C121.043 16.16 120.323 16.02 119.723 15.74C119.123 15.4467 118.663 15.0533 118.343 14.56C118.023 14.0667 117.863 13.5133 117.863 12.9C117.863 12.26 118.016 11.7 118.323 11.22C118.643 10.74 119.143 10.3667 119.823 10.1C120.503 9.82 121.389 9.68 122.483 9.68H125.343V11.5H122.823C122.089 11.5 121.583 11.62 121.303 11.86C121.036 12.1 120.903 12.4 120.903 12.76C120.903 13.16 121.056 13.48 121.363 13.72C121.683 13.9467 122.116 14.06 122.663 14.06C123.183 14.06 123.649 13.94 124.063 13.7C124.476 13.4467 124.776 13.08 124.963 12.6L125.443 14.04C125.216 14.7333 124.803 15.26 124.203 15.62C123.603 15.98 122.829 16.16 121.883 16.16Z" fill="#505050"/>
</svg>
