<svg width="40" height="45" viewBox="0 0 40 45" fill="none" xmlns="http://www.w3.org/2000/svg">
<path d="M9.79632 39.375C15.8378 42.844 23.3475 42.844 29.389 39.375C35.4238 35.9098 39.1853 29.459 39.1853 22.5C39.1853 15.541 35.4238 9.09019 29.389 5.625C23.3475 2.156 15.8378 2.156 9.79632 5.625C3.76145 9.09019 0 15.541 0 22.5C0 29.459 3.76145 35.9098 9.79632 39.375Z" fill="#E98074"/>
<path d="M16.0589 37.084C18.2144 38.3189 20.863 38.3189 23.0185 37.084L30.2286 32.9532C32.4058 31.7059 33.7488 29.3886 33.7488 26.8794V18.7111C33.7488 16.2019 32.4058 13.8846 30.2286 12.6373L23.0185 8.50649C20.863 7.27157 18.2144 7.27157 16.0589 8.50649L8.84883 12.6373C6.67164 13.8846 5.32861 16.2019 5.32861 18.7111V26.8794C5.32861 29.3886 6.67164 31.7059 8.84883 32.9532L16.0589 37.084Z" fill="white"/>
<path fill-rule="evenodd" clip-rule="evenodd" d="M20.1356 11.8413L20.1358 11.8415L30.4763 22.8105L26.3368 24.692L26.3382 24.695L18.8552 28.0961L9.51521 16.7325L9.50391 16.7089L20.1357 11.8415L20.1356 11.8413Z" fill="#D8C3A4"/>
<path fill-rule="evenodd" clip-rule="evenodd" d="M8.29042 18.4262C8.29894 18.8093 8.6902 19.4562 8.6902 19.4562L17.4287 30.594C17.3707 30.3173 17.4025 30.0103 17.4825 29.6887C17.5926 29.2462 18.0345 28.6544 18.0345 28.6544L18.4871 28.1881L9.2585 16.7891C9.2585 16.7891 8.83272 16.9518 8.63905 17.1579C8.32484 17.4924 8.27989 17.9532 8.29042 18.4262Z" fill="#EAE8DC"/>
<path d="M18.9162 28.3944L30.0522 23.2754L29.9286 26.2425L20.1499 31.04C20.1499 31.04 19.2521 31.4685 18.6784 31.3112C18.1835 31.1754 17.9893 31.0514 17.8132 30.5694C17.6279 30.0624 17.7814 29.6716 18.0603 29.2095C18.3175 28.7835 18.9162 28.3944 18.9162 28.3944Z" fill="#EAE8DC"/>
<path fill-rule="evenodd" clip-rule="evenodd" d="M19.7478 28.2886C19.4975 28.4053 19.3892 28.7028 19.5059 28.9531C19.6227 29.2034 19.9201 29.3116 20.1704 29.1949L31.2983 24.0059L30.8757 23.0996L19.7478 28.2886Z" fill="#505050"/>
<path fill-rule="evenodd" clip-rule="evenodd" d="M29.9874 24.5811L19.3093 29.7596C19.0608 29.8801 18.951 30.182 19.064 30.434C19.177 30.6859 19.47 30.7925 19.7184 30.672L29.9562 25.707L29.9874 24.5811Z" fill="#505050"/>
<path d="M19.5176 30.2618C19.4324 30.192 19.9043 29.9849 20.2748 29.8183C20.702 29.6263 21.2869 29.3266 21.2869 29.3266C21.2869 29.3266 21.5997 30.0429 21.6631 30.6032C21.7477 31.3495 21.5371 32.5582 21.5371 32.5582C21.3314 32.0291 21.1354 31.9324 20.6302 31.7453L19.5902 32.9961C19.5902 32.9961 19.9362 31.6775 19.7374 31.0398C19.6047 30.6138 19.6028 30.3316 19.5176 30.2618Z" fill="#E85A50"/>
<path d="M14.8579 16.9653L19.1164 14.9796L20.5949 16.7408L16.3197 18.7584L14.8579 16.9653Z" fill="#EAE8DC"/>
<path fill-rule="evenodd" clip-rule="evenodd" d="M20.1356 11.8413L20.1358 11.8415L30.4763 22.8105L26.3368 24.692L26.3382 24.695L18.8552 28.0961L9.51521 16.7325L9.50391 16.7089L20.1357 11.8415L20.1356 11.8413Z" fill="#D8C3A4"/>
<path fill-rule="evenodd" clip-rule="evenodd" d="M8.29042 18.4262C8.29894 18.8093 8.6902 19.4562 8.6902 19.4562L17.4287 30.594C17.3707 30.3173 17.4025 30.0103 17.4825 29.6887C17.5926 29.2462 18.0345 28.6544 18.0345 28.6544L18.4871 28.1881L9.2585 16.7891C9.2585 16.7891 8.83272 16.9518 8.63905 17.1579C8.32484 17.4924 8.27989 17.9532 8.29042 18.4262Z" fill="#EAE8DC"/>
<path d="M18.9162 28.3944L30.0522 23.2754L29.9286 26.2425L20.1499 31.04C20.1499 31.04 19.2521 31.4685 18.6784 31.3112C18.1835 31.1754 17.9893 31.0514 17.8132 30.5694C17.6279 30.0624 17.7814 29.6716 18.0603 29.2095C18.3175 28.7835 18.9162 28.3944 18.9162 28.3944Z" fill="#EAE8DC"/>
<path fill-rule="evenodd" clip-rule="evenodd" d="M19.7478 28.2886C19.4975 28.4053 19.3892 28.7028 19.5059 28.9531C19.6227 29.2034 19.9201 29.3116 20.1704 29.1949L31.2983 24.0059L30.8757 23.0996L19.7478 28.2886Z" fill="#505050"/>
<path fill-rule="evenodd" clip-rule="evenodd" d="M29.9874 24.5811L19.3093 29.7596C19.0608 29.8801 18.951 30.182 19.064 30.434C19.177 30.6859 19.47 30.7925 19.7184 30.672L29.9562 25.707L29.9874 24.5811Z" fill="#505050"/>
<path d="M19.5176 30.2618C19.4324 30.192 19.9043 29.9849 20.2748 29.8183C20.702 29.6263 21.2869 29.3266 21.2869 29.3266C21.2869 29.3266 21.5997 30.0429 21.6631 30.6032C21.7477 31.3495 21.5371 32.5582 21.5371 32.5582C21.3314 32.0291 21.1354 31.9324 20.6302 31.7453L19.5902 32.9961C19.5902 32.9961 19.9362 31.6775 19.7374 31.0398C19.6047 30.6138 19.6028 30.3316 19.5176 30.2618Z" fill="#E85A50"/>
<path d="M14.8579 16.9653L19.1164 14.9796L20.5949 16.7408L16.3197 18.7584L14.8579 16.9653Z" fill="#EAE8DC"/>
</svg>
